<?xml version="1.0" encoding="UTF-8"?>
<svg version="1.1" xmlns="http://www.w3.org/2000/svg" width="377" height="221">
<path d="M0 0 C124.41 0 248.82 0 377 0 C377 72.93 377 145.86 377 221 C252.59 221 128.18 221 0 221 C0 148.07 0 75.14 0 0 Z " fill="#FEFEFE" transform="translate(0,0)"/>
<path d="M0 0 C21.12 0 42.24 0 64 0 C64 17.82 64 35.64 64 54 C57.4 54 50.8 54 44 54 C44 56.31 44 58.62 44 61 C45.65 61 47.3 61 49 61 C49 61.66 49 62.32 49 63 C37.78 63 26.56 63 15 63 C15 62.34 15 61.68 15 61 C16.65 61 18.3 61 20 61 C20 58.69 20 56.38 20 54 C13.4 54 6.8 54 0 54 C0 36.18 0 18.36 0 0 Z " fill="#F9FCF8" transform="translate(38,77)"/>
<path d="M0 0 C21.12 0 42.24 0 64 0 C64 17.82 64 35.64 64 54 C57.4 54 50.8 54 44 54 C44 56.31 44 58.62 44 61 C45.65 61 47.3 61 49 61 C49 61.66 49 62.32 49 63 C37.78 63 26.56 63 15 63 C15 62.34 15 61.68 15 61 C16.65 61 18.3 61 20 61 C20 58.69 20 56.38 20 54 C13.4 54 6.8 54 0 54 C0 36.18 0 18.36 0 0 Z M2 2 C2 15.53 2 29.06 2 43 C21.47 43 40.94 43 61 43 C61 29.47 61 15.94 61 2 C41.53 2 22.06 2 2 2 Z " fill="#98D091" transform="translate(38,77)"/>
<path d="M0 0 C10.56 0 21.12 0 32 0 C34.10423276 5.26058189 34.27266601 7.5466799 34 13 C33.67 13.33 33.34 13.66 33 14 C32.76304852 16.69422605 32.57831398 19.36334611 32.4375 22.0625 C32.293125 24.681875 32.14875 27.30125 32 30 C21.44 30 10.88 30 0 30 C0 24.72 0 19.44 0 14 C-0.66 14 -1.32 14 -2 14 C-3.41720064 7.68701533 -2.79890503 6.53077839 0 0 Z " fill="#9CD296" transform="translate(54,85)"/>
<path d="M0 0 C2.701875 -0.061875 5.40375 -0.12375 8.1875 -0.1875 C9.02949951 -0.21481201 9.87149902 -0.24212402 10.73901367 -0.27026367 C16.22006653 -0.33085299 19.50122146 0.57694202 23.546875 4.5 C27.06123194 8.88153592 28.42791063 12.0469188 28.34375 17.73828125 C27.69743788 21.99072123 25.76855105 25.73568516 23 29 C18.0437151 32.30418993 13.85125635 32.37527335 8.125 32.1875 C5.44375 32.125625 2.7625 32.06375 0 32 C0 21.44 0 10.88 0 0 Z " fill="#FBFBFB" transform="translate(117,89)"/>
<path d="M0 0 C5.15055847 1.78288562 7.56506082 4.13012164 10 9 C10.62499339 13.37495374 10.34845954 15.375176 8.1875 19.25 C7.465625 20.1575 6.74375 21.065 6 22 C5.57203125 22.54398438 5.1440625 23.08796875 4.703125 23.6484375 C2.30804229 25.5491224 0.58569076 25.39961214 -2.4375 25.375 C-3.38496094 25.38273437 -4.33242187 25.39046875 -5.30859375 25.3984375 C-8 25 -8 25 -12 22 C-12.33 25.96 -12.66 29.92 -13 34 C-13.99 34 -14.98 34 -16 34 C-16.11662261 29.95857785 -16.1873935 25.91759135 -16.25 21.875 C-16.28351563 20.73289062 -16.31703125 19.59078125 -16.3515625 18.4140625 C-16.44437033 10.43258887 -15.67803226 6.94074885 -10.25 1.125 C-6.86413798 -0.56793101 -3.66346554 -0.50920757 0 0 Z " fill="#F5F5F5" transform="translate(194,96)"/>
<path d="M0 0 C5.02289313 2.41843003 6.95817154 4.88655134 9 10 C9.33549831 12.80755481 9.28701431 15.55287613 9.1875 18.375 C9.16719727 19.47908203 9.16719727 19.47908203 9.14648438 20.60546875 C9.11144869 22.40396743 9.05765288 24.20208422 9 26 C7.68 26 6.36 26 5 26 C4.67 24.68 4.34 23.36 4 22 C3.360625 22.495 2.72125 22.99 2.0625 23.5 C-2.03049479 25.50473214 -5.51888995 25.88646279 -10 25 C-13.34162203 22.36936138 -16.53642603 19.30004006 -17.40625 14.984375 C-17.60222927 10.31353579 -17.20309363 7.63365199 -14.125 4 C-9.86167113 -0.448691 -5.99430951 -0.71649154 0 0 Z " fill="#F6F6F6" transform="translate(226,96)"/>
<path d="M0 0 C3.85366983 1.98188734 6.53945336 4.92654883 8 9 C8.23712823 11.92159882 8.18813817 14.82136008 8.125 17.75 C8.11597656 18.54277344 8.10695313 19.33554688 8.09765625 20.15234375 C8.07417012 22.10169281 8.03830137 24.05088575 8 26 C6.68 26 5.36 26 4 26 C3.67 25.01 3.34 24.02 3 23 C2.01 23.66 1.02 24.32 0 25 C-4.16052196 25.59992545 -7.9054114 25.43783544 -11.8125 23.875 C-15.70413013 20.53931703 -17.76831129 17.62182097 -18.5 12.5 C-17.80238616 7.61670312 -15.82169292 4.6278958 -12.1640625 1.359375 C-8.33973723 -1.04290874 -4.35166726 -0.74129348 0 0 Z " fill="#F9F9F9" transform="translate(312,96)"/>
<path d="M0 0 C3 1 3 1 4.3503418 3.22485352 C4.79547119 4.18319092 5.24060059 5.14152832 5.69921875 6.12890625 C6.18583984 7.16337891 6.67246094 8.19785156 7.17382812 9.26367188 C7.67333984 10.35228516 8.17285156 11.44089844 8.6875 12.5625 C9.19861328 13.65498047 9.70972656 14.74746094 10.23632812 15.87304688 C11.50015789 18.5778788 12.75420885 21.28682429 14 24 C16.64498328 21.65077089 17.99027187 19.30656028 19.48046875 16.11328125 C19.92197266 15.17548828 20.36347656 14.23769531 20.81835938 13.27148438 C21.27017578 12.29501953 21.72199219 11.31855469 22.1875 10.3125 C22.88262695 8.83040039 22.88262695 8.83040039 23.59179688 7.31835938 C24.73368224 4.88155247 25.86948697 2.44209842 27 0 C27.66 0 28.32 0 29 0 C29.67580829 4.01935181 30.33900261 8.04068815 31 12.0625 C31.19078125 13.19623047 31.3815625 14.32996094 31.578125 15.49804688 C32.48679524 21.0636521 33.26201086 26.35857867 33 32 C32.01 32 31.02 32 30 32 C28.68 25.07 27.36 18.14 26 11 C23.16385567 17.15856104 23.16385567 17.15856104 20.34643555 23.32568359 C19.988479 24.09219238 19.63052246 24.85870117 19.26171875 25.6484375 C18.71970825 26.82672119 18.71970825 26.82672119 18.16674805 28.02880859 C17 30 17 30 14 32 C10.0759717 25.12426899 6.49666435 18.10147296 3 11 C1.44005901 17.98187183 0.51537952 24.86606248 0 32 C-1.32 32 -2.64 32 -4 32 C-3.27073945 21.26226713 -1.57481857 10.63854386 0 0 Z " fill="#2C2C2C" transform="translate(256,89)"/>
<path d="M0 0 C20.79 0 41.58 0 63 0 C63 14.19 63 28.38 63 43 C62.67 43 62.34 43 62 43 C62 29.47 62 15.94 62 2 C42.2 2 22.4 2 2 2 C2 15.86 2 29.72 2 44 C21.47 44 40.94 44 61 44 C61 44.33 61 44.66 61 45 C41.53 45 22.06 45 2 45 C2 47.31 2 49.62 2 52 C7.94 52 13.88 52 20 52 C20 52.33 20 52.66 20 53 C13.4 53 6.8 53 0 53 C0 35.51 0 18.02 0 0 Z " fill="#7AC271" transform="translate(38,77)"/>
<path d="M0 0 C1.88411336 0.005036 3.76822807 0.00959511 5.65234375 0.01367188 C10.18493003 0.02448604 14.71744934 0.04162895 19.25 0.0625 C19.25 0.3925 19.25 0.7225 19.25 1.0625 C13.64 1.0625 8.03 1.0625 2.25 1.0625 C2.25 3.7025 2.25 6.3425 2.25 9.0625 C3.9 9.0625 5.55 9.0625 7.25 9.0625 C7.25 9.7225 7.25 10.3825 7.25 11.0625 C-3.97 11.0625 -15.19 11.0625 -26.75 11.0625 C-26.75 10.4025 -26.75 9.7425 -26.75 9.0625 C-25.1 9.0625 -23.45 9.0625 -21.75 9.0625 C-21.75 6.7525 -21.75 4.4425 -21.75 2.0625 C-28.35 2.0625 -34.95 2.0625 -41.75 2.0625 C-41.75 1.7325 -41.75 1.4025 -41.75 1.0625 C-27.81844943 0.22687075 -13.95460171 -0.06628373 0 0 Z " fill="#81C578" transform="translate(79.75,128.9375)"/>
<path d="M0 0 C0.93585938 0.00644531 1.87171875 0.01289062 2.8359375 0.01953125 C5.51993803 0.18117274 7.99428807 0.66045669 10.625 1.1875 C11.96283393 0.87271554 13.29703709 0.54162344 14.625 0.1875 C15.615 0.5175 16.605 0.8475 17.625 1.1875 C17.625 5.1475 17.625 9.1075 17.625 13.1875 C9.045 13.1875 0.465 13.1875 -8.375 13.1875 C-8.375 9.5575 -8.375 5.9275 -8.375 2.1875 C-5.02734419 -0.04427054 -3.90438715 -0.05883323 0 0 Z " fill="#FCFDFC" transform="translate(65.375,98.8125)"/>
<path d="M0 0 C2.701875 -0.061875 5.40375 -0.12375 8.1875 -0.1875 C9.02949951 -0.21481201 9.87149902 -0.24212402 10.73901367 -0.27026367 C16.22006653 -0.33085299 19.50122146 0.57694202 23.546875 4.5 C27.06123194 8.88153592 28.42791063 12.0469188 28.34375 17.73828125 C27.69743788 21.99072123 25.76855105 25.73568516 23 29 C18.0437151 32.30418993 13.85125635 32.37527335 8.125 32.1875 C5.44375 32.125625 2.7625 32.06375 0 32 C0 21.44 0 10.88 0 0 Z M3 3 C3 11.58 3 20.16 3 29 C13.19296983 29.68957553 13.19296983 29.68957553 21 26 C24.60659849 22.0639526 24.50588749 18.85205361 24.34765625 13.69921875 C23.85284026 9.85744515 22.69340417 7.76428323 20 5 C14.34780714 1.96711603 9.83502712 3 3 3 Z " fill="#202020" transform="translate(117,89)"/>
<path d="M0 0 C19.47 0 38.94 0 59 0 C59 1.65 59 3.3 59 5 C39.53 5 20.06 5 0 5 C0 3.35 0 1.7 0 0 Z " fill="#F8FCF7" transform="translate(40,123)"/>
<path d="M0 0 C3.85366983 1.98188734 6.53945336 4.92654883 8 9 C8.23712823 11.92159882 8.18813817 14.82136008 8.125 17.75 C8.11597656 18.54277344 8.10695313 19.33554688 8.09765625 20.15234375 C8.07417012 22.10169281 8.03830137 24.05088575 8 26 C6.68 26 5.36 26 4 26 C3.67 25.01 3.34 24.02 3 23 C2.01 23.66 1.02 24.32 0 25 C-4.16052196 25.59992545 -7.9054114 25.43783544 -11.8125 23.875 C-15.70413013 20.53931703 -17.76831129 17.62182097 -18.5 12.5 C-17.80238616 7.61670312 -15.82169292 4.6278958 -12.1640625 1.359375 C-8.33973723 -1.04290874 -4.35166726 -0.74129348 0 0 Z M-14 8 C-14.87799405 12.70419968 -14.62378518 16.07377352 -11.9375 20.0625 C-8.21772362 22.51596953 -6.3766411 22.78154305 -2 22 C1.87733925 18.79698062 3.77919928 16.67177689 4.4375 11.6875 C4.33958167 7.79767776 4.33958167 7.79767776 1.3125 5.0625 C-4.92217489 1.18053262 -8.99403827 2.99403827 -14 8 Z " fill="#292929" transform="translate(312,96)"/>
<path d="M0 0 C5.02289313 2.41843003 6.95817154 4.88655134 9 10 C9.33549831 12.80755481 9.28701431 15.55287613 9.1875 18.375 C9.16719727 19.47908203 9.16719727 19.47908203 9.14648438 20.60546875 C9.11144869 22.40396743 9.05765288 24.20208422 9 26 C7.68 26 6.36 26 5 26 C4.67 24.68 4.34 23.36 4 22 C3.360625 22.495 2.72125 22.99 2.0625 23.5 C-2.03049479 25.50473214 -5.51888995 25.88646279 -10 25 C-13.34162203 22.36936138 -16.53642603 19.30004006 -17.40625 14.984375 C-17.60222927 10.31353579 -17.20309363 7.63365199 -14.125 4 C-9.86167113 -0.448691 -5.99430951 -0.71649154 0 0 Z M-13 7 C-14.55024464 10.10048928 -14.28992015 12.57894218 -14 16 C-12.20437595 18.75329021 -10.94745078 20.52627461 -8 22 C-4.6700329 22.66830771 -4.6700329 22.66830771 -1 22 C2.64786296 19.2501948 4.72925169 16.35374153 5.625 11.875 C4.85587772 8.33703751 3.50522717 6.57891032 1 4 C-4.49042646 1.25478677 -8.90148521 2.90148521 -13 7 Z " fill="#2C2C2C" transform="translate(226,96)"/>
<path d="M0 0 C5.15055847 1.78288562 7.56506082 4.13012164 10 9 C10.62499339 13.37495374 10.34845954 15.375176 8.1875 19.25 C7.465625 20.1575 6.74375 21.065 6 22 C5.57203125 22.54398438 5.1440625 23.08796875 4.703125 23.6484375 C2.30804229 25.5491224 0.58569076 25.39961214 -2.4375 25.375 C-3.38496094 25.38273437 -4.33242187 25.39046875 -5.30859375 25.3984375 C-8 25 -8 25 -12 22 C-12.33 25.96 -12.66 29.92 -13 34 C-13.99 34 -14.98 34 -16 34 C-16.11662261 29.95857785 -16.1873935 25.91759135 -16.25 21.875 C-16.28351563 20.73289062 -16.31703125 19.59078125 -16.3515625 18.4140625 C-16.44437033 10.43258887 -15.67803226 6.94074885 -10.25 1.125 C-6.86413798 -0.56793101 -3.66346554 -0.50920757 0 0 Z M-12 7 C-13.6143926 10.22878519 -13.5818272 13.50903682 -13 17 C-10.47093858 20.60199656 -8.76212513 21.76443405 -4.5625 23.0625 C-0.16842411 22.98541095 1.66329997 21.78058336 5 19 C6.75158547 15.49682906 6.6837198 11.81305274 6 8 C2.95666217 4.36284015 1.12108584 3.17701355 -3.5625 2.4375 C-7.52374737 3.08570411 -9.18799374 4.18799374 -12 7 Z " fill="#343434" transform="translate(194,96)"/>
<path d="M0 0 C0.99 0 1.98 0 3 0 C3.03738281 1.26457031 3.07476562 2.52914062 3.11328125 3.83203125 C3.17893833 5.4922173 3.24538576 7.15237222 3.3125 8.8125 C3.33505859 9.64587891 3.35761719 10.47925781 3.38085938 11.33789062 C3.41630859 12.14033203 3.45175781 12.94277344 3.48828125 13.76953125 C3.51446533 14.50792236 3.54064941 15.24631348 3.56762695 16.00708008 C4.11009979 18.5074786 5.0143607 19.42988878 7 21 C9.79881044 21.5154245 12.11759395 21.22876238 15 21 C17.3968665 18.6031335 17.28281133 17.92971686 17.4140625 14.6484375 C17.45273438 13.79765625 17.49140625 12.946875 17.53125 12.0703125 C17.5621875 11.18085937 17.593125 10.29140625 17.625 9.375 C17.66367188 8.4778125 17.70234375 7.580625 17.7421875 6.65625 C17.83659357 4.4377073 17.92216748 2.21917597 18 0 C19.32 0 20.64 0 22 0 C22.75754803 17.33943275 22.75754803 17.33943275 18 24 C13.94586996 25.35137668 10.23418885 25.68341294 6 25 C3.24430553 22.81840855 1.56411253 21.12822506 0 18 C-0.08308638 16.62451844 -0.10736016 15.24514204 -0.09765625 13.8671875 C-0.09443359 13.06152344 -0.09121094 12.25585938 -0.08789062 11.42578125 C-0.07951172 10.58402344 -0.07113281 9.74226563 -0.0625 8.875 C-0.05798828 8.02550781 -0.05347656 7.17601563 -0.04882812 6.30078125 C-0.03702874 4.20049091 -0.01909306 2.1002367 0 0 Z " fill="#292929" transform="translate(150,96)"/>
<path d="M0 0 C3 1 3 1 4.09082031 2.55053711 C4.41663086 3.2028833 4.74244141 3.85522949 5.078125 4.52734375 C5.61179687 5.59178711 5.61179687 5.59178711 6.15625 6.67773438 C6.5171875 7.42345703 6.878125 8.16917969 7.25 8.9375 C7.62640625 9.67935547 8.0028125 10.42121094 8.390625 11.18554688 C9.33029601 13.09079893 10.1730082 15.04320375 11 17 C10.67 17.66 10.34 18.32 10 19 C8.1875 18.9375 8.1875 18.9375 6 18 C4.25 14.4375 4.25 14.4375 3 11 C1.44005901 17.98187183 0.51537952 24.86606248 0 32 C-1.32 32 -2.64 32 -4 32 C-3.27073945 21.26226713 -1.57481857 10.63854386 0 0 Z " fill="#353535" transform="translate(256,89)"/>
<path d="M0 0 C1.32 0 2.64 0 4 0 C4 11.55 4 23.1 4 35 C2.68 35 1.36 35 0 35 C0 23.45 0 11.9 0 0 Z " fill="#474747" transform="translate(325,87)"/>
<path d="M0 0 C6.27 0 12.54 0 19 0 C19 2.31 19 4.62 19 7 C12.73 7 6.46 7 0 7 C0 4.69 0 2.38 0 0 Z " fill="#F2F9F1" transform="translate(60,131)"/>
<path d="M0 0 C0.33 0.66 0.66 1.32 1 2 C0.67 2.66 0.34 3.32 0 4 C-0.55439448 9.54038298 -0.55439448 9.54038298 1.5625 14.4375 C5.49187178 16.95632806 9.42869513 17 14 17 C13.67 17.99 13.34 18.98 13 20 C11.58430936 20.08167446 10.16723195 20.13949698 8.75 20.1875 C7.56664062 20.23970703 7.56664062 20.23970703 6.359375 20.29296875 C4 20 4 20 0 17 C-0.33 20.96 -0.66 24.92 -1 29 C-1.99 29 -2.98 29 -4 29 C-4.11614929 24.9169058 -4.18723457 20.83423623 -4.25 16.75 C-4.28351563 15.59113281 -4.31703125 14.43226562 -4.3515625 13.23828125 C-4.36445313 12.12324219 -4.37734375 11.00820312 -4.390625 9.859375 C-4.41157227 8.83295898 -4.43251953 7.80654297 -4.45410156 6.74902344 C-3.88879153 3.32677023 -2.62690073 2.17241963 0 0 Z " fill="#1B1B1B" transform="translate(182,101)"/>
<path d="M0 0 C3.25927843 1.58025621 4.93866283 4.12994976 7.0625 7 C8.64310949 11.74182847 8.9089303 15.7943642 7.12109375 20.453125 C5.21364387 24.16039437 3.948431 26.50781611 0.25 28.5625 C-0.471875 28.706875 -1.19375 28.85125 -1.9375 29 C-1.9375 27.68 -1.9375 26.36 -1.9375 25 C-0.7 23.9790625 -0.7 23.9790625 0.5625 22.9375 C3.85580454 19.06786717 3.66680374 16.53941269 3.4140625 11.59765625 C2.9692382 8.31089894 2.38886301 6.40390844 0.0625 4 C-3.01311246 2.64019119 -3.01311246 2.64019119 -5.9375 2 C-3.87474414 0.74761251 -2.43703105 0 0 0 Z " fill="#2C2C2C" transform="translate(136.9375,91)"/>
<path d="M0 0 C1.32 0.33 2.64 0.66 4 1 C3.67 5.62 3.34 10.24 3 15 C11.91 14.67 20.82 14.34 30 14 C30.33 9.71 30.66 5.42 31 1 C31.33 1 31.66 1 32 1 C32 6.28 32 11.56 32 17 C21.77 17 11.54 17 1 17 C0.67 11.39 0.34 5.78 0 0 Z " fill="#7CC374" transform="translate(53,98)"/>
<path d="M0 0 C0.99 0 1.98 0 3 0 C3 10.89 3 21.78 3 33 C2.01 33 1.02 33 0 33 C0 22.11 0 11.22 0 0 Z " fill="#232323" transform="translate(335,88)"/>
<path d="M0 0 C0.5775 0.226875 1.155 0.45375 1.75 0.6875 C0.76 1.0175 -0.23 1.3475 -1.25 1.6875 C-0.59 2.3475 0.07 3.0075 0.75 3.6875 C-0.054375 4.161875 -0.85875 4.63625 -1.6875 5.125 C-4.09753488 6.45650154 -4.09753488 6.45650154 -5.25 7.6875 C-5.8436444 12.3977277 -5.88528961 15.71471279 -3.25 19.75 C-2.59 20.389375 -1.93 21.02875 -1.25 21.6875 C-1.58 22.3475 -1.91 23.0075 -2.25 23.6875 C-6.48910579 22.17353365 -8.18638856 19.59362165 -10.25 15.6875 C-10.8697472 11.34926957 -10.5842226 9.30819912 -8.5 5.4375 C-3.6377551 -0.50524376 -3.6377551 -0.50524376 0 0 Z " fill="#2F2F2F" transform="translate(304.25,96.3125)"/>
<path d="M0 0 C10.23 0 20.46 0 31 0 C31 0.99 31 1.98 31 3 C28.69 2.67 26.38 2.34 24 2 C24 3.65 24 5.3 24 7 C23.34 6.34 22.68 5.68 22 5 C22 4.01 22 3.02 22 2 C20.02 2 18.04 2 16 2 C16 3.65 16 5.3 16 7 C15.67 7 15.34 7 15 7 C15 5.35 15 3.7 15 2 C13.453125 2.2784375 13.453125 2.2784375 11.875 2.5625 C8.23851558 2.97307082 5.54562991 2.778309 2 2 C1.67 2.99 1.34 3.98 1 5 C0.67 5 0.34 5 0 5 C0 3.35 0 1.7 0 0 Z " fill="#7CC373" transform="translate(54,85)"/>
<path d="M0 0 C1.32 0 2.64 0 4 0 C4.05394705 2.60444348 4.09364469 5.20776998 4.125 7.8125 C4.14175781 8.55048828 4.15851563 9.28847656 4.17578125 10.04882812 C4.21074628 13.91246426 4.19397555 15.70903668 2 19 C1.34 19 0.68 19 0 19 C0 12.73 0 6.46 0 0 Z " fill="#404040" transform="translate(168,96)"/>
<path d="M0 0 C0.66 0.66 1.32 1.32 2 2 C1.67 2.66 1.34 3.32 1 4 C0.40832031 3.94199219 -0.18335938 3.88398437 -0.79296875 3.82421875 C-5.17661109 3.57392922 -7.31762489 3.51665096 -11 6.125 C-13.15299098 9.21992454 -13.73991338 11.27209179 -14 15 C-14.66 15 -15.32 15 -16 15 C-16.55172244 11.05912542 -16.97852074 7.52316908 -14.7578125 4.06640625 C-10.39630776 -0.12425614 -5.93372739 -1.25683839 0 0 Z " fill="#252525" transform="translate(226,96)"/>
<path d="M0 0 C0.33 0 0.66 0 1 0 C1.12152487 7.73708326 0.84800767 15.307359 0 23 C-1.32 23 -2.64 23 -4 23 C-3.54593375 15.04601192 -2.12888539 7.67202093 0 0 Z " fill="#1A1A1A" transform="translate(256,98)"/>
<path d="M0 0 C0.99 0.66 1.98 1.32 3 2 C1.48369171 3.51630829 -0.0149486 3.22479295 -2.125 3.375 C-6.61890122 3.81360476 -9.95924122 5.0226074 -14 7 C-11.10140444 -0.00493926 -7.0102657 -0.55637029 0 0 Z " fill="#262626" transform="translate(194,96)"/>
<path d="M0 0 C-0.99 0.33 -1.98 0.66 -3 1 C-2.34 1.66 -1.68 2.32 -1 3 C-2.1446875 3.680625 -2.1446875 3.680625 -3.3125 4.375 C-5.23632814 5.53824492 -7.12941224 6.7529415 -9 8 C-9.66 7.34 -10.32 6.68 -11 6 C-4.94863014 -1.48458904 -4.94863014 -1.48458904 0 0 Z " fill="#393939" transform="translate(306,97)"/>
<path d="M0 0 C0.66 0 1.32 0 2 0 C2 3.3 2 6.6 2 10 C0.35 10 -1.3 10 -3 10 C-2.49287967 6.28111761 -1.88391785 3.26545761 0 0 Z " fill="#232323" transform="translate(283,89)"/>
<path d="M0 0 C1.65 0 3.3 0 5 0 C5.33 1.98 5.66 3.96 6 6 C4.02 6 2.04 6 0 6 C0 4.02 0 2.04 0 0 Z " fill="#E5F3E3" transform="translate(71,87)"/>
<path d="M0 0 C1.65 0 3.3 0 5 0 C5.042721 1.66611905 5.04063832 3.33382885 5 5 C4 6 4 6 1.4375 6.0625 C0.2309375 6.0315625 0.2309375 6.0315625 -1 6 C-0.67 4.02 -0.34 2.04 0 0 Z " fill="#E6F3E4" transform="translate(56,87)"/>
<path d="M0 0 C0.33 1.32 0.66 2.64 1 4 C1.66 4 2.32 4 3 4 C3 6.31 3 8.62 3 11 C1.68 11 0.36 11 -1 11 C-0.67 7.37 -0.34 3.74 0 0 Z " fill="#3D3D3D" transform="translate(253,110)"/>
<path d="M0 0 C-1.31224548 3.93673644 -2.91910327 6.22719294 -6 9 C-6.66 8.67 -7.32 8.34 -8 8 C-8 5 -8 5 -5.6875 2.3125 C-3 0 -3 0 0 0 Z " fill="#2B2B2B" transform="translate(203,112)"/>
<path d="M0 0 C2.475 0.495 2.475 0.495 5 1 C5.33 2.65 5.66 4.3 6 6 C4.33388095 6.042721 2.66617115 6.04063832 1 6 C0 5 0 5 -0.0625 2.4375 C-0.041875 1.633125 -0.02125 0.82875 0 0 Z " fill="#EAF5E9" transform="translate(79,87)"/>
<path d="M0 0 C3.73584906 1.47169811 3.73584906 1.47169811 5 4 C1.37 4.33 -2.26 4.66 -6 5 C-2.25 1.125 -2.25 1.125 0 0 Z " fill="#8BCA83" transform="translate(78,96)"/>
<path d="M0 0 C1.65 0 3.3 0 5 0 C4.67 1.65 4.34 3.3 4 5 C3.01 5 2.02 5 1 5 C0.67 3.35 0.34 1.7 0 0 Z " fill="#202020" transform="translate(268,115)"/>
<path d="M0 0 C0.33 0.99 0.66 1.98 1 3 C-1 6 -1 6 -3.125 6.6875 C-3.74375 6.790625 -4.3625 6.89375 -5 7 C-3.75023244 3.34683329 -3.32901247 2.21934164 0 0 Z " fill="#212121" transform="translate(169,114)"/>
<path d="M0 0 C1.27351308 2.54702616 0.80191925 3.4282945 0.0625 6.125 C-0.13214844 6.84945312 -0.32679688 7.57390625 -0.52734375 8.3203125 C-0.68332031 8.87460938 -0.83929688 9.42890625 -1 10 C-1.66 10 -2.32 10 -3 10 C-3.36923077 3.47692308 -3.36923077 3.47692308 -1.5 1.0625 C-1.005 0.711875 -0.51 0.36125 0 0 Z " fill="#171717" transform="translate(213,101)"/>
<path d="M0 0 C1.32 0 2.64 0 4 0 C4 1.65 4 3.3 4 5 C2.68 5 1.36 5 0 5 C0 3.35 0 1.7 0 0 Z " fill="#F8FCF7" transform="translate(64,87)"/>
</svg>
